<svg width="26" height="22" viewBox="0 0 26 22" fill="none" xmlns="http://www.w3.org/2000/svg">
<path d="M2.461 12.15H2.346C2.14667 12.15 1.955 12.1308 1.771 12.0925C1.587 12.0542 1.42217 11.9852 1.2765 11.8855C1.1385 11.7858 1.0235 11.6478 0.9315 11.4715C0.847167 11.2952 0.805 11.0652 0.805 10.7815V5.181C0.805 4.905 0.847167 4.67883 0.9315 4.5025C1.01583 4.32617 1.127 4.18817 1.265 4.0885C1.403 3.98117 1.56017 3.90833 1.7365 3.87C1.91283 3.824 2.093 3.801 2.277 3.801H2.461V12.15ZM2.99 4.2035C2.99 3.7205 3.11267 3.341 3.358 3.065C3.60333 2.789 3.956 2.651 4.416 2.651C4.623 2.651 4.7955 2.68167 4.9335 2.743C5.07917 2.79667 5.19033 2.8695 5.267 2.9615C5.35133 3.0535 5.40883 3.16083 5.4395 3.2835C5.47783 3.3985 5.497 3.51733 5.497 3.64C5.497 3.73967 5.474 3.85083 5.428 3.9735C5.32067 3.8815 5.22483 3.8355 5.1405 3.8355C4.98717 3.8355 4.87983 3.90067 4.8185 4.031C4.76483 4.16133 4.738 4.30317 4.738 4.4565V11.9315C4.738 12.0158 4.74183 12.1002 4.7495 12.1845C4.75717 12.2765 4.77633 12.357 4.807 12.426C4.83767 12.5027 4.876 12.564 4.922 12.61C4.97567 12.656 5.0485 12.679 5.1405 12.679C5.20183 12.679 5.25167 12.6675 5.29 12.6445C5.32833 12.6292 5.36667 12.6023 5.405 12.564C5.43567 12.564 5.45867 12.6062 5.474 12.6905C5.48933 12.7825 5.497 12.8438 5.497 12.8745C5.497 12.9972 5.47783 13.116 5.4395 13.231C5.40883 13.3537 5.35133 13.461 5.267 13.553C5.19033 13.645 5.083 13.7178 4.945 13.7715C4.81467 13.8328 4.646 13.8635 4.439 13.8635C3.979 13.8635 3.6225 13.7255 3.3695 13.4495C3.1165 13.1735 2.99 12.794 2.99 12.311V4.2035ZM23.3232 3.801H23.5072C23.6912 3.801 23.8713 3.824 24.0477 3.87C24.224 3.90833 24.3812 3.98117 24.5192 4.0885C24.6572 4.18817 24.7683 4.32617 24.8527 4.5025C24.937 4.67883 24.9792 4.905 24.9792 5.181V10.7815C24.9792 11.0652 24.9332 11.2952 24.8412 11.4715C24.7568 11.6478 24.6418 11.7858 24.4962 11.8855C24.3582 11.9852 24.1933 12.0542 24.0017 12.0925C23.8177 12.1308 23.6298 12.15 23.4382 12.15H23.3232V3.801ZM22.7942 12.311C22.7942 12.794 22.6715 13.1735 22.4262 13.4495C22.1808 13.7255 21.8282 13.8635 21.3682 13.8635C21.1612 13.8635 20.9848 13.8328 20.8392 13.7715C20.7012 13.7178 20.59 13.645 20.5057 13.553C20.429 13.461 20.3715 13.3537 20.3332 13.231C20.3025 13.116 20.2872 12.9972 20.2872 12.8745C20.2872 12.8132 20.291 12.7557 20.2987 12.702C20.314 12.656 20.3332 12.6023 20.3562 12.541C20.4558 12.633 20.5517 12.679 20.6437 12.679C20.7357 12.679 20.8047 12.656 20.8507 12.61C20.9043 12.564 20.9465 12.5027 20.9772 12.426C21.0078 12.357 21.027 12.2765 21.0347 12.1845C21.0423 12.1002 21.0462 12.0158 21.0462 11.9315V4.4565C21.0462 4.30317 21.0155 4.16133 20.9542 4.031C20.9005 3.90067 20.797 3.8355 20.6437 3.8355C20.5823 3.8355 20.5325 3.847 20.4942 3.87C20.4558 3.88533 20.4175 3.91217 20.3792 3.9505C20.3485 3.89683 20.3255 3.85467 20.3102 3.824C20.2948 3.78567 20.2872 3.72433 20.2872 3.64C20.2872 3.51733 20.3063 3.3985 20.3447 3.2835C20.383 3.16083 20.4443 3.0535 20.5287 2.9615C20.6207 2.8695 20.7357 2.79667 20.8737 2.743C21.0117 2.68167 21.1842 2.651 21.3912 2.651C21.8512 2.651 22.2 2.789 22.4377 3.065C22.6753 3.341 22.7942 3.7205 22.7942 4.2035V12.311Z" fill="white"/>
<path d="M7.23438 10.5176C7.23438 10.1621 7.30664 9.82031 7.45117 9.49219C7.51758 9.49219 7.62109 9.50586 7.76172 9.5332C7.90234 9.55664 8.05078 9.58789 8.20703 9.62695C8.1875 8.78711 8.17773 7.9668 8.17773 7.16602C8.17773 6.30273 8.19336 5.56641 8.22461 4.95703H8.21875L8.22461 4.88672L7.26953 4.76367C7.21094 4.52539 7.17188 4.32812 7.15234 4.17188C7.13281 4.01172 7.125 3.82812 7.12891 3.62109C7.25391 3.48047 7.4375 3.35742 7.67969 3.25195C7.92578 3.14258 8.18945 3.06055 8.4707 3.00586C8.75586 2.94727 9.01562 2.91797 9.25 2.91797C9.69922 2.91797 10.0488 3.00781 10.2988 3.1875C10.5527 3.36328 10.6973 3.64453 10.7324 4.03125C10.7441 4.18359 10.75 4.34961 10.75 4.5293C10.75 5.12305 10.6973 5.82617 10.5918 6.63867C10.4863 7.45117 10.3457 8.40039 10.1699 9.48633L10.123 9.79102L11.6172 9.87305L12.2266 7.92773C12.4102 7.91992 12.6191 7.93359 12.8535 7.96875C13.0918 8.00391 13.2969 8.05273 13.4688 8.11523C13.5391 8.29883 13.6035 8.5918 13.6621 8.99414C13.7246 9.39258 13.7559 9.7832 13.7559 10.166C13.7559 10.8027 13.6621 11.25 13.4746 11.5078C13.3809 11.6328 13.25 11.7422 13.082 11.8359C12.918 11.9258 12.7441 11.9941 12.5605 12.041C12.3809 12.0918 12.2188 12.1172 12.0742 12.1172C11.8438 12.1172 11.5742 12.0684 11.2656 11.9707C10.957 11.8691 10.6543 11.7422 10.3574 11.5898C10.0605 11.4336 9.81641 11.2773 9.625 11.1211C9.44922 11.4258 9.24609 11.6621 9.01562 11.8301C8.78516 11.998 8.49805 12.0938 8.1543 12.1172C7.98633 12.0898 7.83203 12.002 7.69141 11.8535C7.55078 11.7051 7.43945 11.5137 7.35742 11.2793C7.27539 11.0449 7.23438 10.791 7.23438 10.5176Z" fill="white"/>
<path d="M4.873 20.065C4.53933 20.065 4.2295 20.0087 3.9435 19.896C3.6575 19.7833 3.40617 19.623 3.1895 19.415C2.97717 19.207 2.8125 18.96 2.6955 18.674C2.5785 18.388 2.52 18.0717 2.52 17.725C2.52 17.3957 2.58283 17.0923 2.7085 16.815C2.83417 16.5333 3.00533 16.2885 3.222 16.0805C3.443 15.8682 3.6965 15.7035 3.9825 15.5865C4.27283 15.4695 4.5805 15.411 4.9055 15.411C5.15683 15.411 5.3995 15.4478 5.6335 15.5215C5.8675 15.5908 6.07983 15.684 6.2705 15.801C6.46117 15.918 6.615 16.0458 6.732 16.1845L6.2835 16.7175C6.14483 16.5875 6.00183 16.4792 5.8545 16.3925C5.70717 16.3015 5.55117 16.2322 5.3865 16.1845C5.22617 16.1325 5.05717 16.1065 4.8795 16.1065C4.66283 16.1065 4.45483 16.1455 4.2555 16.2235C4.05617 16.3015 3.88067 16.412 3.729 16.555C3.57733 16.698 3.456 16.8692 3.365 17.0685C3.27833 17.2678 3.235 17.4867 3.235 17.725C3.235 17.9807 3.27833 18.2103 3.365 18.414C3.456 18.6177 3.5795 18.791 3.7355 18.934C3.89583 19.0727 4.08 19.181 4.288 19.259C4.496 19.3327 4.72133 19.3695 4.964 19.3695C5.15467 19.3695 5.33233 19.3435 5.497 19.2915C5.66167 19.2395 5.81117 19.1723 5.9455 19.09C6.08417 19.0077 6.20983 18.9167 6.3225 18.817L6.667 19.3955C6.55867 19.5038 6.41133 19.61 6.225 19.714C6.03867 19.818 5.8285 19.9025 5.5945 19.9675C5.3605 20.0325 5.12 20.065 4.873 20.065ZM10.1562 20.065C9.8009 20.065 9.4759 20.0065 9.18123 19.8895C8.88656 19.7725 8.62873 19.6078 8.40773 19.3955C8.18673 19.1832 8.01556 18.9362 7.89423 18.6545C7.77723 18.3685 7.71873 18.0587 7.71873 17.725C7.71873 17.3913 7.77723 17.0837 7.89423 16.802C8.01556 16.516 8.18673 16.2668 8.40773 16.0545C8.62873 15.8422 8.88656 15.6775 9.18123 15.5605C9.4759 15.4435 9.8009 15.385 10.1562 15.385C10.5072 15.385 10.8301 15.4435 11.1247 15.5605C11.4237 15.6775 11.6816 15.8443 11.8982 16.061C12.1192 16.2733 12.2904 16.5225 12.4117 16.8085C12.5331 17.0902 12.5937 17.3957 12.5937 17.725C12.5937 18.0543 12.5331 18.362 12.4117 18.648C12.2904 18.9297 12.1192 19.1788 11.8982 19.3955C11.6816 19.6078 11.4237 19.7725 11.1247 19.8895C10.8301 20.0065 10.5072 20.065 10.1562 20.065ZM10.1562 19.3825C10.4076 19.3825 10.6372 19.3413 10.8452 19.259C11.0576 19.1767 11.2396 19.0618 11.3912 18.9145C11.5472 18.7628 11.6664 18.5873 11.7487 18.388C11.8354 18.1843 11.8787 17.9633 11.8787 17.725C11.8787 17.4867 11.8354 17.2678 11.7487 17.0685C11.6664 16.8648 11.5472 16.6893 11.3912 16.542C11.2396 16.3903 11.0576 16.2733 10.8452 16.191C10.6372 16.1087 10.4076 16.0675 10.1562 16.0675C9.9049 16.0675 9.67306 16.1087 9.46073 16.191C9.25273 16.2733 9.07073 16.3903 8.91473 16.542C8.75873 16.6893 8.63956 16.8648 8.55723 17.0685C8.4749 17.2678 8.43373 17.4867 8.43373 17.725C8.43373 17.9633 8.4749 18.1843 8.55723 18.388C8.63956 18.5873 8.75873 18.7628 8.91473 18.9145C9.07073 19.0618 9.25273 19.1767 9.46073 19.259C9.67306 19.3413 9.9049 19.3825 10.1562 19.3825ZM13.9727 20V15.45H15.9617C16.3214 15.45 16.6421 15.5063 16.9237 15.619C17.2097 15.7317 17.4524 15.892 17.6517 16.1C17.8511 16.308 18.0027 16.5507 18.1067 16.828C18.2107 17.101 18.2627 17.4 18.2627 17.725C18.2627 18.0543 18.2107 18.3577 18.1067 18.635C18.0027 18.9123 17.8511 19.1528 17.6517 19.3565C17.4567 19.5602 17.2162 19.7183 16.9302 19.831C16.6442 19.9437 16.3214 20 15.9617 20H13.9727ZM14.6747 19.3955L14.6552 19.324H15.9292C16.1936 19.324 16.4254 19.285 16.6247 19.207C16.8284 19.129 16.9952 19.0207 17.1252 18.882C17.2596 18.739 17.3614 18.57 17.4307 18.375C17.5001 18.18 17.5347 17.9633 17.5347 17.725C17.5347 17.491 17.5001 17.2765 17.4307 17.0815C17.3614 16.8865 17.2596 16.7175 17.1252 16.5745C16.9909 16.4315 16.8241 16.321 16.6247 16.243C16.4254 16.165 16.1936 16.126 15.9292 16.126H14.6357L14.6747 16.0675V19.3955ZM19.6412 20V15.45H22.8717V16.126H20.3432V19.324H22.8717V20H19.6412ZM19.9857 18.0045V17.3285H22.5142V18.0045H19.9857Z" fill="white"/>
<path d="M12.3281 11.7168C12.3281 11.5176 12.3652 11.3164 12.4395 11.1133C12.5137 10.9102 12.6289 10.7188 12.7852 10.5391C13.3555 10.7891 13.8516 10.9805 14.2734 11.1133C14.6992 11.2461 15.1367 11.3125 15.5859 11.3125C15.668 11.3125 15.752 11.3047 15.8379 11.2891C15.9277 11.2734 15.998 11.252 16.0488 11.2246C16.0684 11.1816 16.084 11.127 16.0957 11.0605C16.1074 10.9902 16.1133 10.9336 16.1133 10.8906C16.1133 10.6992 16.0215 10.5352 15.8379 10.3984C15.6543 10.2617 15.4121 10.125 15.1113 9.98828L14.9062 9.88867C14.3203 9.58789 13.8496 9.31836 13.4941 9.08008C13.1426 8.83789 12.8438 8.52148 12.5977 8.13086C12.3555 7.73633 12.2344 7.25391 12.2344 6.68359C12.2344 5.84766 12.4668 5.17773 12.9316 4.67383C13.4004 4.16992 14.1445 3.91797 15.1641 3.91797C16.0352 3.91797 16.7246 3.9707 17.2324 4.07617C17.4434 4.20117 17.627 4.33203 17.7832 4.46875C17.9434 4.60156 18.0957 4.76367 18.2402 4.95508C18.2402 5.22852 18.2129 5.52539 18.1582 5.8457C18.1074 6.16211 18.0352 6.45312 17.9414 6.71875C17.8516 6.98438 17.7539 7.17578 17.6484 7.29297C17.5586 7.33594 17.459 7.36914 17.3496 7.39258C17.2402 7.41211 17.1055 7.42188 16.9453 7.42188C16.7773 7.42188 16.6406 7.41016 16.5352 7.38672C16.4297 7.36328 16.332 7.32422 16.2422 7.26953L16.0605 6.05078C15.834 5.98828 15.5938 5.94336 15.3398 5.91602C15.0859 5.88477 14.9141 5.87109 14.8242 5.875C14.6797 5.94141 14.5801 6.03516 14.5254 6.15625C14.4746 6.27344 14.4492 6.41406 14.4492 6.57812C14.4492 6.75391 14.4961 6.90625 14.5898 7.03516C14.6875 7.16016 14.8047 7.26367 14.9414 7.3457C15.0781 7.42773 15.2539 7.51953 15.4688 7.62109L15.7266 7.75C16.2852 8.04297 16.7246 8.29883 17.0449 8.51758C17.3652 8.73633 17.6328 9.01367 17.8477 9.34961C18.0664 9.68164 18.1758 10.084 18.1758 10.5566C18.1758 11.1074 18.0312 11.582 17.7422 11.9805C17.4531 12.375 17.082 12.6602 16.6289 12.8359C16.3828 12.9336 16.1113 13.0039 15.8145 13.0469C15.5176 13.0898 15.1738 13.1113 14.7832 13.1113C14.5176 13.1113 14.2324 13.0781 13.9277 13.0117C13.623 12.9453 13.3262 12.8281 13.0371 12.6602C12.752 12.4922 12.5234 12.2676 12.3516 11.9863C12.3359 11.9121 12.3281 11.8223 12.3281 11.7168Z" fill="white"/>
</svg>
